# xmcd
#
# Track frame offsets: 
#        150
#        11177
#        26380
#        39727
#        53240
#        65545
#        78857
#        89444
#        100211
#        114548
#        128006
#        142086
#        155318
#        167460
#        184905
#        198678
#
# Disc length: 2838 seconds
#
# Revision: 0
# Processed by: cddbd v1.5.2PL0 Copyright (c) Steve Scherf et al.
# Submitted via: ExactAudioCopyFreeDBPlugin 1.0
#
DISCID=d70b1410
DTITLE=Various Artist - The Roots Of The Rolling Stones CD1
DYEAR=2016
DGENRE=Blues
TTITLE0=Little Walter   - Just Your Fool
TTITLE1=Howlin' Wolf   - Commit A Crime
TTITLE2=Little Walter   - Blue And Lonesome
TTITLE3=Magic Sam   - All Of Your Love
TTITLE4=Little Walter   - I Got To Go
TTITLE5=Eddie Taylor   - Ride 'em On Down
TTITLE6=Little Walter   - Hate To See You Go
TTITLE7=Lightnin' Slim   - Hoo Doo Blues
TTITLE8=Jimmy Reed   - Little Rain
TTITLE9=Howlin' Wolf   - Just Like I Treat You
TTITLE10=Otis Rush   - I Can't Quit You Baby
TTITLE11=Ella Johnson With Buddy Johnson   - I'm Just Your Fool
TTITLE12=Memphis Slim   - Blue And Lonesome
TTITLE13=Little Johnny Taylor   - Part Time Love
TTITLE14=Bukka White   - Shake 'em On Down
TTITLE15=Junior Wells and His Eagle Rockers - Hodo Man
EXTD=
EXTT0=
EXTT1=
EXTT2=
EXTT3=
EXTT4=
EXTT5=
EXTT6=
EXTT7=
EXTT8=
EXTT9=
EXTT10=
EXTT11=
EXTT12=
EXTT13=
EXTT14=
EXTT15=
PLAYORDER=
